<?xml version="1.0" standalone="no"?>
<!DOCTYPE svg PUBLIC "-//W3C//DTD SVG 20010904//EN"
 "http://www.w3.org/TR/2001/REC-SVG-20010904/DTD/svg10.dtd">
<svg version="1.0" xmlns="http://www.w3.org/2000/svg"
 width="300.000000pt" height="300.000000pt" viewBox="0 0 300.000000 300.000000"
 preserveAspectRatio="xMidYMid meet">
<metadata>
Created by potrace 1.14, written by Peter Selinger 2001-2017
</metadata>
<g transform="translate(0.000000,300.000000) scale(0.100000,-0.100000)"
fill="#000000" stroke="none">
<path d="M2047 2393 c-22 -4 -27 -9 -22 -24 3 -10 7 -28 10 -38 3 -11 1 -22
-5 -26 -15 -10 -12 -21 16 -54 14 -17 34 -31 45 -31 23 0 23 3 4 -50 -25 -70
-19 -74 40 -30 l55 41 20 -33 c11 -18 20 -39 20 -45 0 -19 24 -16 43 5 21 23
21 32 0 48 -10 7 -13 14 -7 14 6 0 17 -7 24 -15 16 -19 50 -20 50 0 0 7 7 18
15 23 12 6 14 18 9 49 -9 60 -34 94 -97 136 -51 34 -61 37 -124 36 -37 -1 -81
-4 -96 -6z m137 -182 c11 -1 -60 -71 -72 -71 -5 0 -5 17 1 40 10 35 14 40 37
36 14 -2 29 -5 34 -5z m46 -36 c7 -8 8 -15 2 -15 -5 0 -15 7 -22 15 -7 8 -8
15 -2 15 5 0 15 -7 22 -15z"/>
<path d="M1285 2186 c-75 -35 -90 -57 -90 -127 1 -53 8 -73 65 -186 36 -69 77
-147 93 -174 l27 -49 73 26 c85 31 96 39 90 62 -3 12 16 45 51 89 31 40 56 76
56 82 0 12 -67 66 -135 109 -50 31 -101 85 -146 154 -13 21 -26 38 -29 38 -3
0 -27 -11 -55 -24z"/>
<path d="M1034 1800 c-8 -8 -1 -44 28 -133 22 -67 41 -133 43 -147 2 -14 5
-30 7 -35 6 -19 -63 -116 -76 -107 -34 28 -121 44 -211 40 -83 -3 -101 -8
-168 -41 -260 -129 -316 -470 -110 -676 172 -171 443 -167 607 9 52 56 57 59
81 48 34 -15 40 -6 21 31 -9 16 -16 33 -16 37 0 3 40 3 90 -1 l89 -7 31 30
c23 23 30 39 30 69 0 38 1 40 53 58 28 11 59 18 69 17 9 -2 19 2 23 8 3 5 14
10 24 10 15 0 19 -11 25 -62 13 -131 111 -270 230 -328 170 -82 356 -51 489
81 167 167 167 430 0 597 -95 95 -234 139 -375 118 -67 -10 -70 -15 -50 -68
15 -40 20 -45 36 -36 10 6 52 10 93 10 128 0 235 -69 295 -191 32 -64 32 -195
1 -263 -30 -66 -96 -133 -162 -165 -74 -36 -191 -39 -263 -6 -115 52 -188 158
-196 283 -6 103 22 175 94 247 29 29 57 53 62 53 5 0 37 -71 73 -157 47 -117
69 -159 83 -161 13 -3 17 0 13 9 -3 8 -46 113 -96 234 -67 165 -86 221 -75
223 29 7 13 18 -20 14 -34 -4 -34 -5 -24 -35 10 -28 9 -32 -13 -46 -86 -56
-189 -201 -189 -267 0 -33 -18 -39 -48 -17 -43 31 -47 32 -62 21 -12 -8 -11
-8 5 -3 16 5 14 1 -9 -24 -19 -20 -27 -36 -23 -50 4 -17 -1 -22 -21 -27 -15
-4 -32 -10 -37 -13 -6 -3 1 5 15 18 14 13 18 20 10 15 -13 -7 -13 -5 1 16 93
146 123 189 130 185 4 -3 11 0 15 6 4 8 3 9 -4 5 -20 -12 -13 5 21 53 55 76
52 80 -10 11 -130 -145 -131 -146 -144 -132 -7 6 -27 12 -45 12 -24 0 -38 7
-53 28 -20 27 -20 27 -36 7 -8 -11 -22 -35 -30 -54 -18 -40 -12 -47 45 -57 63
-10 65 -12 40 -39 -20 -21 -33 -25 -81 -25 -36 0 -59 5 -62 13 -4 10 -6 9 -6
0 -2 -29 -20 -10 -26 28 -4 22 -12 38 -18 36 -8 -2 -30 -38 -64 -105 -1 -2
-17 4 -37 13 -30 14 -36 23 -36 47 0 27 -2 30 -26 24 -33 -9 -74 -35 -74 -49
0 -10 -122 -3 -141 9 -6 4 -4 13 7 25 9 11 22 28 28 38 6 10 32 51 59 90 26
39 47 74 47 77 0 9 63 98 74 106 6 4 12 12 12 18 1 5 2 15 3 21 0 5 5 7 11 4
6 -4 7 1 3 12 -6 16 -5 16 10 5 9 -8 23 -36 32 -63 18 -54 20 -56 29 -33 3 8
2 13 -3 10 -10 -7 -28 58 -37 137 -6 50 -5 57 10 57 20 0 21 -5 -34 150 -28
79 -42 106 -56 108 -11 1 -24 -2 -30 -8z m-75 -496 c32 -13 33 -15 19 -36 -8
-13 -42 -65 -74 -117 -41 -65 -67 -97 -86 -103 -47 -17 -49 -72 -3 -102 33
-22 31 -32 -6 -40 -22 -4 -30 -11 -27 -23 3 -16 24 -20 157 -30 145 -11 170
-17 171 -45 0 -3 -23 -26 -50 -51 -80 -72 -187 -99 -288 -73 -73 18 -126 50
-171 102 -57 64 -76 117 -76 214 0 73 4 93 28 142 73 149 258 223 406 162z
m62 -306 c7 -13 17 -26 23 -31 6 -4 0 -5 -14 -3 -14 3 -38 5 -55 5 -23 1 -27
3 -15 11 11 7 3 8 -26 4 -36 -5 -42 -4 -47 15 -5 20 -1 21 59 21 55 0 65 -3
75 -22z m273 14 c2 -4 -2 -18 -10 -32 l-13 -25 -1 33 c0 29 12 43 24 24z
m-297 -78 c85 -16 93 -20 104 -46 6 -16 10 -31 7 -33 -3 -3 -58 -1 -124 5 -65
5 -129 10 -141 10 -14 0 -23 6 -23 15 0 8 9 15 19 15 30 0 34 17 9 31 -22 12
-22 12 -3 20 11 4 29 6 40 4 11 -2 61 -12 112 -21z m297 -79 c4 -11 -2 -15
-24 -15 -22 0 -28 4 -24 15 4 8 14 15 24 15 10 0 20 -7 24 -15z"/>
<path d="M2103 1751 c-21 -27 -27 -28 -129 -34 -59 -4 -110 -9 -113 -12 -2 -3
1 -11 7 -17 12 -12 20 -13 125 -21 32 -3 61 -8 65 -11 9 -10 -19 -26 -45 -26
-29 0 -39 -18 -18 -34 15 -11 15 -14 -5 -38 -12 -16 -16 -29 -10 -33 16 -10
12 -22 -10 -28 -11 -3 -20 -10 -20 -17 0 -8 15 -9 48 -5 82 11 90 14 118 51
23 30 26 39 16 55 -20 32 -14 64 19 95 48 46 54 63 30 85 -28 26 -52 23 -78
-10z"/>
<path d="M1608 1623 c-33 -3 -48 -9 -48 -18 0 -12 20 -15 103 -14 124 2 141
-3 157 -41 10 -24 9 -35 -4 -60 -12 -24 -12 -29 -2 -21 41 34 24 113 -27 131
-26 9 -29 13 -17 20 15 10 -58 11 -162 3z"/>
<path d="M1796 1621 c-4 -5 3 -7 14 -4 23 6 26 13 6 13 -8 0 -17 -4 -20 -9z"/>
<path d="M1285 1565 c-55 -19 -100 -35 -100 -35 0 0 -1 -11 -1 -25 -2 -21 0
-22 12 -10 16 15 101 49 168 66 32 8 43 15 39 25 -7 18 -3 19 -118 -21z"/>
<path d="M1779 1433 c-13 -16 -12 -17 4 -4 9 7 17 15 17 17 0 8 -8 3 -21 -13z"/>
<path d="M1739 1383 l-24 -28 28 24 c25 23 32 31 24 31 -2 0 -14 -12 -28 -27z"/>
<path d="M1809 1373 l-24 -28 28 24 c25 23 32 31 24 31 -2 0 -14 -12 -28 -27z"/>
<path d="M1221 1357 c-1 -10 -5 -16 -10 -13 -5 4 -7 -3 -4 -13 3 -10 0 -28 -6
-38 -7 -15 -6 -26 6 -43 l16 -23 13 24 c17 30 17 56 -1 94 -9 21 -14 24 -14
12z"/>
<path d="M1046 1320 l-26 -40 40 -37 c23 -20 53 -56 67 -80 13 -23 27 -43 29
-43 2 0 17 19 34 41 24 34 27 45 19 61 -15 28 -77 95 -109 118 l-28 20 -26
-40z"/>
<path d="M1181 1294 c0 -11 3 -14 6 -6 3 7 2 16 -1 19 -3 4 -6 -2 -5 -13z"/>
<path d="M1716 1262 l-19 -27 26 24 c28 26 32 31 20 31 -5 0 -17 -13 -27 -28z"/>
<path d="M1669 1203 c-59 -67 -72 -83 -67 -83 3 0 27 25 53 55 47 56 59 78 14
28z"/>
<path d="M1282 1138 c-7 -7 -12 -17 -12 -22 0 -6 5 -3 11 7 6 9 15 14 21 11 7
-4 8 -2 4 4 -9 15 -9 15 -24 0z"/>
<path d="M1280 1086 c0 -8 4 -17 9 -20 5 -4 7 3 4 14 -6 23 -13 26 -13 6z"/>
<path d="M1321 1074 c0 -11 3 -14 6 -6 3 7 2 16 -1 19 -3 4 -6 -2 -5 -13z"/>
</g>
</svg>
